<?xml version="1.0" standalone="no"?>
<!DOCTYPE svg PUBLIC "-//W3C//DTD SVG 20010904//EN"
 "http://www.w3.org/TR/2001/REC-SVG-20010904/DTD/svg10.dtd">
<svg version="1.0" xmlns="http://www.w3.org/2000/svg"
 width="512.000000pt" height="512.000000pt" viewBox="0 0 512.000000 512.000000"
 preserveAspectRatio="xMidYMid meet">

<g transform="translate(0.000000,512.000000) scale(0.100000,-0.100000)"
fill="#000000" stroke="none">
<path d="M479 4627 c-39 -30 -39 -26 -39 -1017 l0 -962 56 51 c205 188 417
291 677 332 127 19 350 6 467 -28 l95 -27 1010 -6 c944 -5 1013 -6 1038 -23
40 -26 59 -61 59 -112 0 -51 -19 -86 -59 -112 -25 -17 -84 -18 -806 -23 l-778
-5 56 -65 c65 -74 118 -151 160 -227 l28 -53 641 0 c608 0 643 -1 683 -19 102
-47 102 -195 0 -242 -40 -18 -74 -19 -635 -19 l-594 0 9 -52 c4 -29 7 -127 6
-218 -1 -138 -5 -180 -25 -257 l-24 -93 998 0 999 0 -31 45 c-38 55 -66 119
-93 210 -21 69 -21 85 -24 1476 l-4 1407 -26 26 -26 26 -1901 0 c-1479 -1
-1905 -3 -1917 -13z m3294 -460 c64 -41 84 -123 47 -184 -40 -67 -45 -68 -345
-71 -302 -3 -317 0 -362 67 -49 73 -12 175 73 201 16 5 148 8 294 7 237 -2
269 -4 293 -20z m-1881 -19 c71 -33 146 -102 181 -166 73 -135 73 -329 0 -464
-35 -64 -110 -133 -181 -166 -51 -24 -69 -27 -167 -27 -103 0 -114 2 -177 32
-147 70 -227 207 -228 392 0 165 59 289 177 367 79 52 123 63 238 61 84 -2
109 -7 157 -29z m-656 1 c18 -20 19 -40 19 -313 0 -337 -7 -378 -74 -445 -84
-84 -249 -97 -351 -26 -51 36 -89 109 -97 187 -7 85 8 105 96 119 86 13 112
-4 124 -80 8 -49 10 -52 35 -49 l27 3 5 291 c6 351 0 334 120 334 66 0 80 -3
96 -21z m1450 -14 c47 -24 65 -41 91 -83 43 -73 50 -132 23 -209 l-21 -61 33
-46 c26 -38 33 -58 36 -110 8 -121 -49 -221 -150 -267 -49 -22 -68 -24 -263
-27 -206 -4 -211 -3 -230 18 -19 21 -20 40 -23 394 -3 368 -2 373 19 400 l21
27 202 -3 203 -3 59 -30z m1087 -568 c66 -43 85 -127 44 -188 -43 -65 -62 -69
-350 -69 -196 0 -265 3 -290 14 -121 51 -111 225 15 257 18 4 150 7 293 6 233
-2 264 -4 288 -20z"/>
<path d="M1654 3951 c-52 -24 -79 -59 -94 -122 -24 -100 7 -227 65 -265 66
-43 156 -36 211 17 41 40 57 84 56 163 0 119 -42 194 -121 216 -50 14 -70 12
-117 -9z"/>
<path d="M2410 3915 l0 -35 74 0 c86 0 106 6 106 29 0 32 -22 41 -102 41 l-78
0 0 -35z"/>
<path d="M2410 3599 l0 -51 95 4 c99 3 114 10 115 50 0 37 -27 48 -121 48
l-89 0 0 -51z"/>
<path d="M4492 2758 l3 -993 26 -66 c34 -87 68 -145 121 -204 l44 -48 80 11
c194 26 280 97 331 269 15 52 18 144 21 931 3 962 5 927 -58 1004 -17 20 -53
48 -82 62 -51 26 -55 26 -270 26 l-219 0 3 -992z"/>
<path d="M1250 2900 c-364 -35 -676 -240 -853 -560 -164 -298 -174 -667 -27
-978 22 -46 49 -96 59 -111 l20 -28 -214 -221 c-233 -240 -244 -257 -231 -352
18 -130 175 -212 294 -151 20 10 128 112 240 225 l203 207 57 -35 c75 -46 178
-89 277 -116 103 -28 322 -38 432 -20 423 67 776 386 884 797 26 101 37 335
20 437 -38 220 -128 404 -276 564 -227 245 -558 373 -885 342z m322 -352 c234
-77 409 -250 491 -485 24 -70 31 -110 35 -198 6 -147 -13 -238 -79 -375 -45
-91 -63 -116 -143 -196 -80 -80 -105 -98 -196 -142 -137 -66 -235 -87 -380
-79 -335 18 -607 246 -691 578 -30 118 -24 290 15 404 87 256 278 435 541 506
102 28 300 21 407 -13z"/>
</g>
</svg>
